<?xml version="1.0" standalone="no"?>
<!DOCTYPE svg PUBLIC "-//W3C//DTD SVG 20010904//EN"
 "http://www.w3.org/TR/2001/REC-SVG-20010904/DTD/svg10.dtd">
<svg version="1.0" xmlns="http://www.w3.org/2000/svg"
 width="320.000000pt" height="320.000000pt" viewBox="0 0 320.000000 320.000000"
 preserveAspectRatio="xMidYMid meet">
<metadata>
Created by potrace 1.14, written by Peter Selinger 2001-2017
</metadata>
<g transform="translate(0.000000,320.000000) scale(0.100000,-0.100000)"
fill="#000000" stroke="none">
<path d="M1024 2276 c-39 -17 -78 -68 -99 -127 -12 -32 -16 -73 -13 -155 l2
-110 -49 -57 c-95 -109 -156 -232 -190 -380 -8 -38 -15 -82 -15 -98 0 -28 -2
-30 -28 -25 -152 30 -323 40 -468 27 -164 -15 -164 -15 -164 -66 l0 -43 42 11
c68 17 449 13 536 -5 40 -9 75 -18 76 -19 2 -2 6 -30 9 -61 l6 -58 -49 0 c-33
0 -50 -5 -53 -15 -8 -19 7 -28 66 -40 l49 -10 28 -72 c15 -40 37 -89 49 -108
28 -48 27 -52 -14 -69 -25 -11 -35 -21 -35 -37 0 -22 5 -23 81 -4 23 6 37 -4
115 -82 133 -133 238 -189 258 -138 10 26 -4 42 -72 86 -73 47 -185 154 -180
171 2 6 59 31 126 56 94 35 122 49 122 63 0 10 -5 21 -10 24 -6 4 -67 -14
-135 -40 -69 -25 -133 -45 -142 -43 -18 3 -93 141 -93 171 0 21 15 21 210 2
126 -12 147 -12 160 1 30 30 -7 41 -176 53 -211 16 -216 17 -227 67 -14 63 -1
270 21 340 31 98 99 217 168 296 64 73 65 73 59 123 -6 64 -8 111 -6 158 1 30
5 37 21 37 33 0 112 -88 133 -147 20 -55 46 -74 72 -53 21 17 18 47 -9 105
-29 62 -78 116 -135 148 l-43 25 26 17 c68 44 190 -60 261 -222 24 -56 35 -55
22 1 -8 37 -7 49 7 71 17 26 17 27 -14 75 -85 132 -212 197 -306 156z"/>
<path d="M2343 2269 c-53 -26 -111 -94 -153 -180 l-33 -66 27 -26 c14 -14 26
-32 26 -39 0 -7 20 28 45 78 68 142 153 206 200 154 17 -19 17 -21 -29 -70
-58 -62 -124 -195 -109 -219 5 -9 19 -17 31 -19 17 -3 29 13 67 86 51 99 81
135 95 113 13 -23 22 -154 15 -229 l-7 -70 45 -64 c100 -141 146 -279 154
-463 2 -66 1 -138 -4 -160 l-9 -40 -99 -17 c-55 -10 -120 -21 -145 -25 -36 -6
-45 -12 -45 -28 0 -28 28 -29 160 -7 61 10 111 15 113 10 2 -4 -6 -38 -18 -74
-26 -76 -12 -73 -172 -38 -67 14 -90 16 -99 7 -23 -23 10 -42 112 -64 54 -12
99 -27 99 -34 0 -20 -61 -109 -108 -157 -25 -26 -44 -49 -41 -50 2 -2 19 -11
37 -21 l33 -19 40 44 c23 23 61 76 86 116 25 39 48 72 52 72 3 0 41 -9 84 -19
81 -20 107 -19 107 5 0 17 -20 27 -103 49 -54 14 -68 21 -64 34 42 146 52 172
72 176 11 2 52 10 90 17 59 11 70 16 70 33 0 22 -20 24 -115 12 l-55 -8 0 148
c-1 119 -5 166 -23 237 -25 98 -84 232 -133 300 -31 44 -32 46 -34 178 -2 143
-14 195 -60 274 -48 82 -119 104 -202 63z"/>
<path d="M1374 1378 c-23 -11 -44 -48 -44 -77 0 -28 33 -51 73 -51 71 0 101
67 52 115 -26 27 -47 30 -81 13z"/>
<path d="M2147 1310 c-33 -26 -42 -65 -22 -96 12 -19 24 -24 55 -24 74 0 105
66 55 115 -29 30 -54 32 -88 5z"/>
<path d="M1763 1154 c-3 -9 -1 -25 5 -35 11 -16 2 -25 -76 -76 -89 -58 -102
-69 -102 -89 0 -30 36 -18 127 42 54 35 104 67 110 70 7 3 54 -28 104 -70 50
-42 99 -76 110 -76 40 0 18 38 -61 104 -44 38 -80 70 -80 72 0 2 5 13 12 23
23 38 4 51 -72 51 -56 0 -72 -3 -77 -16z"/>
<path d="M2467 363 l-38 -24 6 -82 c4 -50 1 -116 -8 -169 l-13 -88 42 0 c35 0
43 4 48 23 12 38 18 259 9 313 l-8 51 -38 -24z"/>
</g>
</svg>
